<svg width="32" height="32" viewBox="0 0 32 32" fill="none" xmlns="http://www.w3.org/2000/svg">
<path d="M17.5833 8.95835V2.29169C17.5833 1.76391 17.7638 1.31946 18.125 0.958353C18.4861 0.597242 18.9444 0.416687 19.5 0.416687H29.7083C30.2361 0.416687 30.6805 0.597242 31.0416 0.958353C31.4027 1.31946 31.5833 1.76391 31.5833 2.29169V8.95835C31.5833 9.48613 31.4027 9.93724 31.0416 10.3117C30.6805 10.6872 30.2361 10.875 29.7083 10.875H19.5C18.9444 10.875 18.4861 10.6872 18.125 10.3117C17.7638 9.93724 17.5833 9.48613 17.5833 8.95835ZM0.416626 16.0417V2.29169C0.416626 1.76391 0.597181 1.31946 0.958292 0.958353C1.3194 0.597242 1.76385 0.416687 2.29163 0.416687H12.5C13.0555 0.416687 13.5138 0.597242 13.875 0.958353C14.2361 1.31946 14.4166 1.76391 14.4166 2.29169V16.0417C14.4166 16.5695 14.2361 17.0139 13.875 17.375C13.5138 17.7361 13.0555 17.9167 12.5 17.9167H2.29163C1.76385 17.9167 1.3194 17.7361 0.958292 17.375C0.597181 17.0139 0.416626 16.5695 0.416626 16.0417ZM17.5833 29.6667V15.9584C17.5833 15.4028 17.7638 14.9445 18.125 14.5834C18.4861 14.2222 18.9444 14.0417 19.5 14.0417H29.7083C30.2361 14.0417 30.6805 14.2222 31.0416 14.5834C31.4027 14.9445 31.5833 15.4028 31.5833 15.9584V29.6667C31.5833 30.1945 31.4027 30.6461 31.0416 31.0217C30.6805 31.3961 30.2361 31.5834 29.7083 31.5834H19.5C18.9444 31.5834 18.4861 31.3961 18.125 31.0217C17.7638 30.6461 17.5833 30.1945 17.5833 29.6667ZM0.416626 29.6667V23C0.416626 22.4722 0.597181 22.0278 0.958292 21.6667C1.3194 21.3056 1.76385 21.125 2.29163 21.125H12.5C13.0555 21.125 13.5138 21.3056 13.875 21.6667C14.2361 22.0278 14.4166 22.4722 14.4166 23V29.6667C14.4166 30.1945 14.2361 30.6461 13.875 31.0217C13.5138 31.3961 13.0555 31.5834 12.5 31.5834H2.29163C1.76385 31.5834 1.3194 31.3961 0.958292 31.0217C0.597181 30.6461 0.416626 30.1945 0.416626 29.6667Z" fill="#1CD2AD"/>
</svg>
