<svg width="28" height="34" viewBox="0 0 28 34" fill="none" xmlns="http://www.w3.org/2000/svg">
<path d="M9.08337 27.0414H18.9167C19.4167 27.0414 19.8334 26.8747 20.1667 26.5414C20.5 26.208 20.6667 25.7914 20.6667 25.2914C20.6667 24.7914 20.5 24.3747 20.1667 24.0414C19.8334 23.708 19.4167 23.5414 18.9167 23.5414H9.08337C8.58337 23.5414 8.16671 23.708 7.83337 24.0414C7.50004 24.3747 7.33337 24.7914 7.33337 25.2914C7.33337 25.7914 7.50004 26.208 7.83337 26.5414C8.16671 26.8747 8.58337 27.0414 9.08337 27.0414ZM9.08337 20.3747H18.9167C19.4167 20.3747 19.8334 20.208 20.1667 19.8747C20.5 19.5414 20.6667 19.1247 20.6667 18.6247C20.6667 18.1247 20.5 17.708 20.1667 17.3747C19.8334 17.0414 19.4167 16.8747 18.9167 16.8747H9.08337C8.58337 16.8747 8.16671 17.0414 7.83337 17.3747C7.50004 17.708 7.33337 18.1247 7.33337 18.6247C7.33337 19.1247 7.50004 19.5414 7.83337 19.8747C8.16671 20.208 8.58337 20.3747 9.08337 20.3747ZM4.12504 33.9997C3.06948 33.9997 2.17393 33.6319 1.43837 32.8964C0.701707 32.1597 0.333374 31.2636 0.333374 30.208V3.79136C0.333374 2.73581 0.701707 1.83969 1.43837 1.10303C2.17393 0.367473 3.06948 -0.000305176 4.12504 -0.000305176H15.9167C16.4167 -0.000305176 16.8962 0.0969172 17.355 0.291362C17.8128 0.485806 18.2223 0.749695 18.5834 1.08303L26.5834 9.08303C26.9167 9.44414 27.1806 9.85358 27.375 10.3114C27.5695 10.7703 27.6667 11.2497 27.6667 11.7497V30.208C27.6667 31.2636 27.2989 32.1597 26.5634 32.8964C25.8267 33.6319 24.9306 33.9997 23.875 33.9997H4.12504ZM15.5417 10.208C15.5417 10.7636 15.7223 11.2219 16.0834 11.583C16.4445 11.9441 16.9028 12.1247 17.4584 12.1247H23.875L15.5417 3.79136V10.208Z" fill="#1CD2AD"/>
</svg>
