<svg width="34" height="28" viewBox="0 0 34 28" fill="none" xmlns="http://www.w3.org/2000/svg">
<path d="M3.79167 27.667C2.73611 27.667 1.84 27.2992 1.10333 26.5637C0.367778 25.827 0 24.9309 0 23.8753V3.95866C0 2.9031 0.367778 2.00699 1.10333 1.27033C1.84 0.53477 2.73611 0.166992 3.79167 0.166992H11.9583C12.4583 0.166992 12.9378 0.264214 13.3967 0.458659C13.8544 0.653103 14.2639 0.930881 14.625 1.29199L17 3.66699H30.2083C31.2639 3.66699 32.16 4.03533 32.8967 4.77199C33.6322 5.50755 34 6.4031 34 7.45866V23.8753C34 24.9309 33.6322 25.827 32.8967 26.5637C32.16 27.2992 31.2639 27.667 30.2083 27.667H3.79167Z" fill="#1CD2AD"/>
</svg>
