<svg width="38" height="28" viewBox="0 0 38 28" fill="none" xmlns="http://www.w3.org/2000/svg">
<path d="M2.25 27.8337C1.72222 27.8337 1.27778 27.6531 0.916667 27.292C0.555556 26.9309 0.375 26.4864 0.375 25.9587V22.8337C0.375 21.8059 0.632222 20.8753 1.14667 20.042C1.66 19.2087 2.34722 18.5698 3.20833 18.1253C4.95833 17.2364 6.73611 16.5764 8.54167 16.1453C10.3472 15.7153 12.1806 15.5003 14.0417 15.5003C15.9028 15.5003 17.7361 15.7153 19.5417 16.1453C21.3472 16.5764 23.1111 17.2225 24.8333 18.0837C25.6944 18.5281 26.3889 19.1742 26.9167 20.022C27.4444 20.8687 27.7083 21.8059 27.7083 22.8337V25.9587C27.7083 26.4864 27.5278 26.9309 27.1667 27.292C26.8056 27.6531 26.3472 27.8337 25.7917 27.8337H2.25ZM30.2917 27.8337C30.5694 27.6114 30.785 27.3337 30.9383 27.0003C31.0906 26.667 31.1667 26.3059 31.1667 25.917V22.5003C31.1667 21.2503 30.8333 20.0492 30.1667 18.897C29.5 17.7437 28.5278 16.7087 27.25 15.792C28.6111 15.9864 29.8889 16.2781 31.0833 16.667C32.2778 17.0559 33.4028 17.5281 34.4583 18.0837C35.4861 18.6392 36.2711 19.2987 36.8133 20.062C37.3544 20.8264 37.625 21.6531 37.625 22.542V25.9587C37.625 26.4864 37.4444 26.9309 37.0833 27.292C36.7222 27.6531 36.2778 27.8337 35.75 27.8337H30.2917ZM14.0417 13.8337C12.1528 13.8337 10.5417 13.167 9.20833 11.8337C7.875 10.5003 7.20833 8.88921 7.20833 7.00033C7.20833 5.11144 7.875 3.50033 9.20833 2.16699C10.5417 0.833659 12.1528 0.166992 14.0417 0.166992C15.9306 0.166992 17.5417 0.833659 18.875 2.16699C20.2083 3.50033 20.875 5.11144 20.875 7.00033C20.875 8.88921 20.2083 10.5003 18.875 11.8337C17.5417 13.167 15.9306 13.8337 14.0417 13.8337ZM31.1667 7.00033C31.1667 8.88921 30.5 10.5003 29.1667 11.8337C27.8333 13.167 26.2222 13.8337 24.3333 13.8337C24.0278 13.8337 23.6461 13.7987 23.1883 13.7287C22.7294 13.6598 22.3333 13.5698 22 13.4587C22.75 12.5698 23.3267 11.5698 23.73 10.4587C24.1322 9.34755 24.3333 8.19477 24.3333 7.00033C24.3333 5.80588 24.1322 4.6531 23.73 3.54199C23.3267 2.43088 22.75 1.43088 22 0.541992C22.3889 0.375325 22.7778 0.270881 23.1667 0.228659C23.5556 0.187548 23.9444 0.166992 24.3333 0.166992C26.2222 0.166992 27.8333 0.833659 29.1667 2.16699C30.5 3.50033 31.1667 5.11144 31.1667 7.00033Z" fill="#1CD2AD"/>
</svg>
