<svg width="40" height="40" viewBox="0 0 40 40" fill="none" xmlns="http://www.w3.org/2000/svg">
<mask id="mask0_1_2856" style="mask-type:alpha" maskUnits="userSpaceOnUse" x="0" y="0" width="40" height="40">
<rect width="40" height="40" fill="#D9D9D9"/>
</mask>
<g mask="url(#mask0_1_2856)">
<path d="M25.375 27.4584C25.0139 27.0417 24.8334 26.5761 24.8334 26.0617C24.8334 25.5484 25.0139 25.1111 25.375 24.75L28.25 21.9167H16.7084C16.1806 21.9167 15.7361 21.7289 15.375 21.3534C15.0139 20.9789 14.8334 20.5278 14.8334 20C14.8334 19.4722 15.0139 19.0211 15.375 18.6467C15.7361 18.2711 16.1806 18.0834 16.7084 18.0834H28.25L25.375 15.25C24.9861 14.8611 24.7984 14.4095 24.8117 13.895C24.8261 13.3817 25.0139 12.9306 25.375 12.5417C25.7361 12.1806 26.1739 12 26.6884 12C27.2017 12 27.6389 12.1806 28 12.5417L34.1667 18.6667C34.3334 18.8611 34.4584 19.0695 34.5417 19.2917C34.625 19.5139 34.6667 19.75 34.6667 20C34.6667 20.25 34.625 20.4861 34.5417 20.7084C34.4584 20.9306 34.3334 21.1389 34.1667 21.3334L28 27.5C27.5834 27.8889 27.1322 28.0622 26.6467 28.02C26.16 27.9789 25.7361 27.7917 25.375 27.4584ZM8.33335 35.3334C7.2778 35.3334 6.38224 34.9656 5.64669 34.23C4.91002 33.4934 4.54169 32.5972 4.54169 31.5417V8.45835C4.54169 7.4028 4.91002 6.50669 5.64669 5.77002C6.38224 5.03446 7.2778 4.66669 8.33335 4.66669H18.1667C18.7222 4.66669 19.1806 4.84724 19.5417 5.20835C19.9028 5.56946 20.0834 6.01391 20.0834 6.54169C20.0834 7.09724 19.9028 7.55558 19.5417 7.91669C19.1806 8.2778 18.7222 8.45835 18.1667 8.45835H8.33335V31.5417H18.1667C18.7222 31.5417 19.1806 31.7222 19.5417 32.0834C19.9028 32.4445 20.0834 32.9028 20.0834 33.4584C20.0834 33.9861 19.9028 34.4306 19.5417 34.7917C19.1806 35.1528 18.7222 35.3334 18.1667 35.3334H8.33335Z" fill="#1CD2AD"/>
</g>
</svg>
