<svg width="32" height="35" viewBox="0 0 32 35" fill="none" xmlns="http://www.w3.org/2000/svg">
<path d="M6.04171 34.292C4.54171 34.292 3.25671 33.7576 2.18671 32.6887C1.11782 31.6187 0.583374 30.3337 0.583374 28.8337V25.3753C0.583374 24.8476 0.771152 24.4031 1.14671 24.042C1.52115 23.6809 1.97226 23.5003 2.50004 23.5003H5.75004V1.50035C5.75004 1.16701 5.86782 0.965346 6.10337 0.895346C6.34004 0.826457 6.59726 0.930901 6.87504 1.20868L8.33337 2.66701L10.2084 0.750346C10.4028 0.555901 10.6323 0.458679 10.8967 0.458679C11.16 0.458679 11.3889 0.555901 11.5834 0.750346L13.4584 2.66701L15.3334 0.750346C15.5278 0.555901 15.75 0.458679 16 0.458679C16.25 0.458679 16.4723 0.555901 16.6667 0.750346L18.5834 2.66701L20.4584 0.750346C20.6528 0.555901 20.875 0.458679 21.125 0.458679C21.375 0.458679 21.5973 0.555901 21.7917 0.750346L23.7084 2.66701L25.5834 0.750346C25.7778 0.555901 26 0.458679 26.25 0.458679C26.5 0.458679 26.7223 0.555901 26.9167 0.750346L28.8334 2.66701L30.2917 1.20868C30.5417 0.930901 30.7917 0.81979 31.0417 0.875346C31.2917 0.930901 31.4167 1.13923 31.4167 1.50035V28.8337C31.4167 30.3337 30.8823 31.6187 29.8134 32.6887C28.7434 33.7576 27.4584 34.292 25.9584 34.292H6.04171ZM25.9584 30.5003C26.4306 30.5003 26.8267 30.3403 27.1467 30.0203C27.4656 29.7015 27.625 29.3059 27.625 28.8337V5.62535H9.54171V23.5003H22.375C22.9028 23.5003 23.3545 23.6809 23.73 24.042C24.1045 24.4031 24.2917 24.8476 24.2917 25.3753V28.8337C24.2917 29.3059 24.4517 29.7015 24.7717 30.0203C25.0906 30.3403 25.4862 30.5003 25.9584 30.5003ZM12.8334 12.3753C12.3612 12.3753 11.9723 12.2159 11.6667 11.897C11.3612 11.577 11.2084 11.1809 11.2084 10.7087C11.2084 10.2365 11.3684 9.84035 11.6884 9.52035C12.0073 9.20146 12.4028 9.04201 12.875 9.04201H19.2917C19.7639 9.04201 20.16 9.20146 20.48 9.52035C20.7989 9.84035 20.9584 10.2365 20.9584 10.7087C20.9584 11.1809 20.7989 11.577 20.48 11.897C20.16 12.2159 19.7639 12.3753 19.2917 12.3753H12.8334ZM12.8334 17.3753C12.3612 17.3753 11.9723 17.2159 11.6667 16.897C11.3612 16.577 11.2084 16.1809 11.2084 15.7087C11.2084 15.2365 11.3684 14.8403 11.6884 14.5203C12.0073 14.2015 12.4028 14.042 12.875 14.042H19.2917C19.7639 14.042 20.16 14.2015 20.48 14.5203C20.7989 14.8403 20.9584 15.2365 20.9584 15.7087C20.9584 16.1809 20.7989 16.577 20.48 16.897C20.16 17.2159 19.7639 17.3753 19.2917 17.3753H12.8334ZM24.2917 12.3753C23.8195 12.3753 23.4239 12.2159 23.105 11.897C22.785 11.577 22.625 11.1809 22.625 10.7087C22.625 10.2365 22.785 9.84035 23.105 9.52035C23.4239 9.20146 23.8195 9.04201 24.2917 9.04201C24.7639 9.04201 25.16 9.20146 25.48 9.52035C25.7989 9.84035 25.9584 10.2365 25.9584 10.7087C25.9584 11.1809 25.7989 11.577 25.48 11.897C25.16 12.2159 24.7639 12.3753 24.2917 12.3753ZM24.2917 17.3753C23.8195 17.3753 23.4239 17.2159 23.105 16.897C22.785 16.577 22.625 16.1809 22.625 15.7087C22.625 15.2365 22.785 14.8403 23.105 14.5203C23.4239 14.2015 23.8195 14.042 24.2917 14.042C24.7639 14.042 25.16 14.2015 25.48 14.5203C25.7989 14.8403 25.9584 15.2365 25.9584 15.7087C25.9584 16.1809 25.7989 16.577 25.48 16.897C25.16 17.2159 24.7639 17.3753 24.2917 17.3753Z" fill="#1CD2AD"/>
</svg>
