<svg width="25" height="25" viewBox="0 0 19 20" fill="none" xmlns="http://www.w3.org/2000/svg">
<path d="M13.225 14.475C13.0083 14.225 12.9 13.9457 12.9 13.637C12.9 13.329 13.0083 13.0667 13.225 12.85L14.95 11.15H8.02498C7.70831 11.15 7.44164 11.0373 7.22498 10.812C7.00831 10.5873 6.89998 10.3167 6.89998 9.99999C6.89998 9.68332 7.00831 9.41265 7.22498 9.18799C7.44164 8.96266 7.70831 8.84999 8.02498 8.84999H14.95L13.225 7.14999C12.9916 6.91665 12.879 6.64565 12.887 6.33699C12.8956 6.02899 13.0083 5.75832 13.225 5.52499C13.4416 5.30832 13.7043 5.19999 14.013 5.19999C14.321 5.19999 14.5833 5.30832 14.8 5.52499L18.5 9.19999C18.6 9.31666 18.675 9.44166 18.725 9.57499C18.775 9.70832 18.8 9.84999 18.8 9.99999C18.8 10.15 18.775 10.2917 18.725 10.425C18.675 10.5583 18.6 10.6833 18.5 10.8L14.8 14.5C14.55 14.7333 14.2793 14.8373 13.988 14.812C13.696 14.7873 13.4416 14.675 13.225 14.475ZM2.99998 19.2C2.36664 19.2 1.82931 18.9793 1.38798 18.538C0.945976 18.096 0.724976 17.5583 0.724976 16.925V3.07499C0.724976 2.44165 0.945976 1.90399 1.38798 1.46199C1.82931 1.02065 2.36664 0.799988 2.99998 0.799988H8.89997C9.23331 0.799988 9.50831 0.908321 9.72498 1.12499C9.94164 1.34165 10.05 1.60832 10.05 1.92499C10.05 2.25832 9.94164 2.53332 9.72498 2.74999C9.50831 2.96665 9.23331 3.07499 8.89997 3.07499H2.99998V16.925H8.89997C9.23331 16.925 9.50831 17.0333 9.72498 17.25C9.94164 17.4667 10.05 17.7417 10.05 18.075C10.05 18.3917 9.94164 18.6583 9.72498 18.875C9.50831 19.0917 9.23331 19.2 8.89997 19.2H2.99998Z" fill="#767676"/>
</svg>
