<svg width="24" height="24" viewBox="0 0 24 24" fill="none" xmlns="http://www.w3.org/2000/svg">
<mask id="mask0_1634_75" style="mask-type:alpha" maskUnits="userSpaceOnUse" x="0" y="0" width="24" height="24">
<rect width="24" height="24" fill="#D9D9D9"/>
</mask>
<g mask="url(#mask0_1634_75)">
<path d="M13.925 22.2H10.075C9.79165 22.2 9.54598 22.1043 9.33798 21.913C9.12931 21.721 8.99998 21.4833 8.94998 21.2L8.67498 18.95C8.47498 18.8667 8.29565 18.775 8.13698 18.675C7.97898 18.575 7.81665 18.4667 7.64998 18.35L5.52498 19.25C5.25831 19.35 4.99165 19.3583 4.72498 19.275C4.45831 19.1917 4.24998 19.025 4.09998 18.775L2.19998 15.45C2.04998 15.2 2.00398 14.9333 2.06198 14.65C2.12065 14.3667 2.25831 14.1417 2.47498 13.975L4.29998 12.575V11.425L2.47498 10.025C2.25831 9.85832 2.12065 9.63332 2.06198 9.34999C2.00398 9.06666 2.04998 8.79999 2.19998 8.54999L4.09998 5.22499C4.23331 4.97499 4.43765 4.81232 4.71298 4.73699C4.98765 4.66232 5.25831 4.67499 5.52498 4.77499L7.67498 5.64999C7.82498 5.53332 7.98331 5.42499 8.14998 5.32499C8.31665 5.22499 8.49165 5.14165 8.67498 5.07499L8.94998 2.79999C8.99998 2.49999 9.12931 2.25832 9.33798 2.07499C9.54598 1.89165 9.79165 1.79999 10.075 1.79999H13.925C14.2083 1.79999 14.4543 1.89165 14.663 2.07499C14.871 2.25832 15 2.49999 15.05 2.79999L15.325 5.07499C15.525 5.14165 15.7043 5.22499 15.863 5.32499C16.021 5.42499 16.1833 5.53332 16.35 5.64999L18.475 4.77499C18.7416 4.67499 19.0083 4.66232 19.275 4.73699C19.5416 4.81232 19.75 4.97499 19.9 5.22499L21.8 8.54999C21.95 8.79999 22 9.06666 21.95 9.34999C21.9 9.63332 21.7583 9.85832 21.525 10.025L19.675 11.425C19.6916 11.525 19.7 11.6207 19.7 11.712V12.287C19.7 12.379 19.6833 12.475 19.65 12.575L21.5 13.975C21.7166 14.1417 21.8543 14.3667 21.913 14.65C21.971 14.9333 21.925 15.2 21.775 15.45L19.875 18.75C19.725 19 19.5126 19.1707 19.238 19.262C18.9626 19.354 18.6916 19.35 18.425 19.25L16.325 18.35C16.175 18.4667 16.0166 18.575 15.85 18.675C15.6833 18.775 15.5083 18.8667 15.325 18.95L15.05 21.2C15 21.4833 14.871 21.721 14.663 21.913C14.4543 22.1043 14.2083 22.2 13.925 22.2ZM12.025 15.5C12.9916 15.5 13.8166 15.1583 14.5 14.475C15.1833 13.7917 15.525 12.9667 15.525 12C15.525 11.0333 15.1833 10.2083 14.5 9.52499C13.8166 8.84165 12.9916 8.49999 12.025 8.49999C11.0583 8.49999 10.2333 8.84165 9.54998 9.52499C8.86665 10.2083 8.52498 11.0333 8.52498 12C8.52498 12.9667 8.86665 13.7917 9.54998 14.475C10.2333 15.1583 11.0583 15.5 12.025 15.5ZM12.025 13.5C11.6083 13.5 11.2543 13.354 10.963 13.062C10.671 12.7707 10.525 12.4167 10.525 12C10.525 11.5833 10.671 11.2293 10.963 10.938C11.2543 10.646 11.6083 10.5 12.025 10.5C12.4416 10.5 12.796 10.646 13.088 10.938C13.3793 11.2293 13.525 11.5833 13.525 12C13.525 12.4167 13.3793 12.7707 13.088 13.062C12.796 13.354 12.4416 13.5 12.025 13.5ZM11.075 19.925H12.9L13.25 17.3C13.7833 17.1667 14.275 16.9667 14.725 16.7C15.175 16.4333 15.5833 16.1083 15.95 15.725L18.425 16.75L19.325 15.175L17.175 13.55C17.2583 13.3167 17.321 13.0667 17.363 12.8C17.4043 12.5333 17.425 12.2667 17.425 12C17.425 11.7333 17.4043 11.4667 17.363 11.2C17.321 10.9333 17.2583 10.6833 17.175 10.45L19.325 8.82499L18.425 7.24999L15.95 8.29999C15.5833 7.89999 15.175 7.56666 14.725 7.29999C14.275 7.03332 13.7833 6.83332 13.25 6.69999L12.925 4.07499H11.075L10.75 6.69999C10.2166 6.83332 9.72498 7.03332 9.27498 7.29999C8.82498 7.56666 8.40831 7.89165 8.02498 8.27499L5.57498 7.24999L4.67498 8.82499L6.79998 10.425C6.71665 10.675 6.65431 10.9293 6.61298 11.188C6.57098 11.446 6.54998 11.7167 6.54998 12C6.54998 12.2667 6.57098 12.529 6.61298 12.787C6.65431 13.0457 6.71665 13.3083 6.79998 13.575L4.67498 15.175L5.57498 16.75L8.02498 15.725C8.40831 16.1083 8.82498 16.4333 9.27498 16.7C9.72498 16.9667 10.2166 17.1667 10.75 17.3L11.075 19.925Z" fill="#767676"/>
</g>
</svg>
